Coordinates
version=1
nRows=12
nColumns=34
inDegrees=no

Units are S.I. units (second, meters, Newtons, ...)
If the header above contains a line with 'inDegrees', this indicates whether rotational values are in degrees (yes) or radians (no).

endheader
time	pelvis_tilt	pelvis_list	pelvis_rotation	pelvis_tx	pelvis_ty	pelvis_tz	hip_flexion_r	hip_adduction_r	hip_rotation_r	knee_angle_r	ankle_angle_r	subtalar_angle_r	mtp_angle_r	hip_flexion_l	hip_adduction_l	hip_rotation_l	knee_angle_l	ankle_angle_l	subtalar_angle_l	mtp_angle_l	lumbar_extension	lumbar_bending	lumbar_rotation	arm_flex_r	arm_add_r	arm_rot_r	elbow_flex_r	pro_sup_r	arm_flex_l	arm_add_l	arm_rot_l	elbow_flex_l	pro_sup_l
0.43	0.0377033	-0.0644306	-0.127502	0.395443	0.951724	-0.217284	-0.123487	0.063849	-0.270813	0.255499	0.524253	0.414778	-0.0154184	0.463892	-0.115037	-0.13879	0.205491	0.0107457	-0.0381837	-0.0183867	-0.17517	0.0778875	0.0519073	0.236624	-0.261314	0.0455565	0.814767	1.99671	-0.332855	-0.0848573	-0.322789	0.414514	1.76265
0.44	0.0390698	-0.0660808	-0.134514	0.407636	0.949744	-0.217098	-0.138122	0.0586971	-0.282616	0.260764	0.538178	0.440739	-0.0154216	0.455461	-0.115487	-0.143397	0.162438	0.0238949	-0.0190051	-0.0183789	-0.178086	0.0791362	0.0557387	0.248508	-0.262424	0.0536594	0.823315	1.99638	-0.345572	-0.0827304	-0.333296	0.412668	1.75149
0.45	0.0403368	-0.0674446	-0.141223	0.419939	0.947767	-0.21695	-0.152499	0.0534293	-0.291594	0.266087	0.550268	0.4621	-0.0154247	0.448031	-0.115722	-0.146888	0.127236	0.0370027	-0.00555131	-0.0183711	-0.180744	0.0798931	0.0596642	0.258551	-0.262998	0.0599496	0.832286	1.99681	-0.357011	-0.0811041	-0.342074	0.41081	1.74133
0.46	0.0414636	-0.0683879	-0.147493	0.432363	0.945818	-0.216836	-0.166633	0.0481357	-0.297095	0.271229	0.560176	0.477808	-0.0154279	0.441944	-0.115715	-0.149842	0.100707	0.0493211	0.00195905	-0.0183634	-0.183036	0.0799786	0.0636056	0.266531	-0.262984	0.0642909	0.841681	1.99776	-0.367071	-0.080104	-0.349195	0.40886	1.73228
0.47	0.0424157	-0.0687715	-0.153177	0.444921	0.943917	-0.216753	-0.180526	0.0428721	-0.298685	0.276008	0.567621	0.48706	-0.0154311	0.437436	-0.115368	-0.152749	0.0832963	0.0600917	0.00372531	-0.0183556	-0.184845	0.0792194	0.0674447	0.272272	-0.26234	0.066628	0.851468	1.99899	-0.375675	-0.079834	-0.354745	0.406729	1.72432
0.48	0.0431561	-0.0684574	-0.158127	0.457629	0.94208	-0.216705	-0.194148	0.0376461	-0.296195	0.280335	0.57241	0.489385	-0.0154342	0.434623	-0.114514	-0.155893	0.0749901	0.0685346	0.000240515	-0.0183478	-0.186046	0.0774617	0.071034	0.275645	-0.261044	0.0669911	0.861578	2.00031	-0.382781	-0.0803662	-0.358821	0.404332	1.71737
0.49	0.0436387	-0.0673164	-0.162205	0.470503	0.940316	-0.216701	-0.207414	0.0324075	-0.289751	0.284241	0.574446	0.484692	-0.0154374	0.433495	-0.11293	-0.159304	0.0752731	0.0738569	-0.00783667	-0.01834	-0.186506	0.0745831	0.0742115	0.276575	-0.259105	0.0654959	0.871918	2.00157	-0.388374	-0.0817345	-0.361528	0.401605	1.71133
0.5	0.043807	-0.0652387	-0.165296	0.483559	0.938626	-0.216753	-0.220181	0.0270525	-0.279761	0.287896	0.573712	0.473266	-0.0154406	0.433926	-0.110365	-0.162777	0.0831606	0.0753026	-0.0197822	-0.0183322	-0.186093	0.0705014	0.0768199	0.275042	-0.256561	0.0623323	0.882361	2.00267	-0.392474	-0.0839309	-0.362971	0.398519	1.70613
0.51	0.0435971	-0.0621444	-0.167316	0.496812	0.937009	-0.21688	-0.232248	0.0214402	-0.266854	0.291612	0.570239	0.455703	-0.0154438	0.43569	-0.106574	-0.165957	0.0973037	0.0722526	-0.0348647	-0.0183244	-0.184693	0.0651825	0.0787295	0.271078	-0.25348	0.0577429	0.892763	2.00354	-0.395122	-0.0869086	-0.36326	0.395086	1.70171
0.52	0.0429824	-0.0579775	-0.168223	0.510277	0.935504	-0.217106	-0.243358	0.0154227	-0.2518	0.295836	0.564051	0.432802	-0.0154469	0.438503	-0.101363	-0.168457	0.116151	0.0643635	-0.0523665	-0.0183166	-0.182217	0.0586538	0.0798571	0.264751	-0.249952	0.0519958	0.902957	2.00413	-0.396372	-0.090587	-0.362496	0.391361	1.69807
0.53	0.0419414	-0.052744	-0.168016	0.523956	0.934126	-0.217448	-0.253224	0.00886844	-0.2354	0.30114	0.555102	0.405428	-0.0154501	0.442043	-0.0946099	-0.169968	0.138145	0.0517132	-0.0715855	-0.0183088	-0.178639	0.0509883	0.0801723	0.256172	-0.246075	0.0453611	0.912761	2.00442	-0.396282	-0.0948596	-0.360782	0.387441	1.6952
0.54	0.0404885	-0.0465031	-0.166731	0.537846	0.932897	-0.217919	-0.261533	0.00169126	-0.218386	0.308202	0.543202	0.374367	-0.0154533	0.445979	-0.086295	-0.170325	0.161899	0.0349088	-0.0918387	-0.0183011	-0.174004	0.0423054	0.079695	0.245486	-0.241943	0.0380933	0.921978	2.00442	-0.394905	-0.0996021	-0.35822	0.383462	1.69314
